<svg width="27" height="31" viewBox="0 0 27 31" fill="none" xmlns="http://www.w3.org/2000/svg">
<path d="M13.3739 15.2845C17.595 15.2845 21.0161 11.8634 21.0161 7.64223C21.0161 3.42109 17.595 0 13.3739 0C9.15276 0 5.73167 3.42109 5.73167 7.64223C5.73167 11.8634 9.15276 15.2845 13.3739 15.2845ZM18.7235 17.195H17.7264C16.4009 17.804 14.9262 18.1503 13.3739 18.1503C11.8216 18.1503 10.3528 17.804 9.02141 17.195H8.02434C3.59423 17.195 0 20.7892 0 25.2193V27.7031C0 29.2853 1.28366 30.5689 2.86584 30.5689H23.882C25.4641 30.5689 26.7478 29.2853 26.7478 27.7031V25.2193C26.7478 20.7892 23.1536 17.195 18.7235 17.195Z" fill="#1A1A37"/>
</svg>
